#define end_portal_width 16
#define end_portal_height 16
static unsigned char end_portal_bits[] = {
   0x55, 0x55, 0xaa, 0xaa, 0x55, 0x75, 0xa2, 0xda, 0x55, 0x75, 0xaa, 0xaa,
   0x55, 0x55, 0xaa, 0xaa, 0x55, 0x55, 0xaa, 0xaa, 0x55, 0x55, 0xaa, 0x8a,
   0x5d, 0x55, 0xbe, 0xfa, 0x5d, 0x55, 0xaa, 0x8a };
