#define enemy_width 16
#define enemy_height 16
static unsigned char enemy_bits[] = {
   0x1e, 0x78, 0xfe, 0x7f, 0x06, 0x60, 0x34, 0x2c, 0x68, 0x16, 0x48, 0x12,
   0x30, 0x0c, 0xe0, 0x07, 0x60, 0x06, 0xb0, 0x0d, 0xd0, 0x0a, 0x68, 0x17,
   0x9c, 0x39, 0x6c, 0x36, 0xf4, 0x2f, 0x9c, 0x39 };
