#define portal_width 16
#define portal_height 16
static unsigned char portal_bits[] = {
   0x55, 0x55, 0xaa, 0xaa, 0x55, 0x55, 0xaa, 0xaa, 0x55, 0x55, 0xaa, 0xaa,
   0x55, 0x55, 0xaa, 0xaa, 0x55, 0x55, 0xaa, 0xaa, 0x55, 0x55, 0xaa, 0xaa,
   0x55, 0x55, 0xaa, 0xaa, 0x55, 0x55, 0xaa, 0xaa };
