#define spoopy_side_width 16
#define spoopy_side_height 16
static unsigned char spoopy_side_bits[] = {
   0xf8, 0x07, 0x06, 0x0f, 0x31, 0x10, 0x09, 0x20, 0x07, 0x27, 0x84, 0x24,
   0x84, 0x26, 0x84, 0x27, 0x08, 0x18, 0xf0, 0x0f, 0x30, 0x0c, 0x0c, 0x18,
   0x12, 0x18, 0x16, 0x08, 0xc8, 0x11, 0x78, 0x1e };
