#define spoopy_left_width 16
#define spoopy_left_height 16
static unsigned char spoopy_left_bits[] = {
   0xe0, 0x1f, 0xf0, 0x60, 0x08, 0x8c, 0x04, 0x90, 0xe4, 0xe0, 0x24, 0x21,
   0x64, 0x21, 0xe4, 0x21, 0x18, 0x10, 0xf0, 0x0f, 0x30, 0x0c, 0x18, 0x30,
   0x18, 0x48, 0x10, 0x68, 0x88, 0x13, 0x78, 0x1e };
