#define spoopy_back_width 16
#define spoopy_back_height 16
static unsigned char spoopy_back_bits[] = {
   0x3c, 0x3c, 0x43, 0xc2, 0x9d, 0xb9, 0x0b, 0xf0, 0x04, 0x20, 0x02, 0x40,
   0x02, 0x40, 0x02, 0x40, 0x04, 0x20, 0xf8, 0x1f, 0x10, 0x08, 0x0e, 0x30,
   0x02, 0x48, 0x0c, 0x78, 0x88, 0x13, 0x78, 0x1e };
