#define exit_width 16
#define exit_height 16
static unsigned char exit_bits[] = {
   0xff, 0xff, 0x81, 0x81, 0xbd, 0xbd, 0xa5, 0xa5, 0xa5, 0xa5, 0xa5, 0xa5,
   0xa5, 0xa5, 0xa5, 0xa5, 0xa5, 0xa5, 0xa5, 0xa5, 0xa5, 0xa5, 0xa5, 0xa5,
   0xa5, 0xa5, 0xbd, 0xbd, 0x81, 0x81, 0xff, 0xff };
