#define wall_width 16
#define wall_height 16
static unsigned char wall_bits[] = {
   0xff, 0xff, 0x05, 0xa0, 0xff, 0xff, 0x15, 0xa8, 0x2d, 0xb4, 0x55, 0xaa,
   0xa5, 0xa5, 0x45, 0xa2, 0x45, 0xa2, 0xa5, 0xa5, 0x55, 0xaa, 0x2d, 0xb4,
   0x15, 0xa8, 0xff, 0xff, 0x05, 0xa0, 0xff, 0xff };
