#define spoop_width 16
#define spoop_height 16
static unsigned char spoop_bits[] = {
   0x3c, 0x3c, 0x43, 0xc2, 0x9d, 0xb9, 0x0f, 0xd0, 0x74, 0x2e, 0x4a, 0x52,
   0x6a, 0x56, 0x7a, 0x5e, 0x84, 0x21, 0xf8, 0x1f, 0x30, 0x0c, 0x0c, 0x10,
   0x12, 0x24, 0x16, 0x38, 0xc8, 0x11, 0x78, 0x1e };
